# xmcd
#
# Track frame offsets:
# 150
# 15977
# 31020
# 45439
# 59910
# 73337
# 91007
# 106422
# 119232
# 132157
# 143275
# 157680
# 171275
# 182260
# 194862
# 205112
#
# Disc length: 2951 seconds
#
#
# Revision: 2
# Processed by: cddbd v1.5.2PL0 Copyright (c) Steve Scherf et al.
# Submitted via: FreeRIP 2.942 
#
DISCID=d60b8510
DTITLE=Miguel Aceves Mejía - El Rey
DYEAR=2002
DGENRE=Latin
TTITLE0=RUEGA POR NOSOTROS
TTITLE1=CU-CU-RRU-CU-CU PALOMA
TTITLE2=VUELA PALOMA
TTITLE3=FALLASTE CORAZÓN
TTITLE4=TÚ SOLO TÚ
TTITLE5=LA MALAGUEÑA
TTITLE6=TATA DIOS
TTITLE7=GORRIONCITO PECHO AMARILLO
TTITLE8=EL PASTOR
TTITLE9=ELLA
TTITLE10=EL CRUCIFIJO DE PIEDRA
TTITLE11=ORGULLOSA Y BONITA
TTITLE12=EL REY
TTITLE13=LA ARAÑA
TTITLE14=POR TU ORGULLO
TTITLE15=LA NOCHE Y TÚ
EXTD=
EXTT0=
EXTT1=
EXTT2=
EXTT3=
EXTT4=
EXTT5=
EXTT6=
EXTT7=
EXTT8=
EXTT9=
EXTT10=
EXTT11=
EXTT12=
EXTT13=
EXTT14=
EXTT15=
PLAYORDER=
